# Wavefront OBJ file automatically generated by Tiled2Unity

# Vertices (Count = 121)
v -1536 -512 0
v -1664 -512 0
v -1664 -384 0
v -1536 -384 0
v -1792 -512 0
v -1792 -384 0
v -1920 -512 0
v -1920 -384 0
v -2048 -512 0
v -2048 -384 0
v -2176 -512 0
v -2176 -384 0
v -2304 -512 0
v -2304 -384 0
v -3072 -1024 0
v -3200 -1024 0
v -3200 -896 0
v -3072 -896 0
v -3328 -1024 0
v -3328 -896 0
v -3456 -1024 0
v -3456 -896 0
v -3584 -1024 0
v -3584 -896 0
v -3712 -1024 0
v -3712 -896 0
v -3840 -1024 0
v -3840 -896 0
v -3968 -1024 0
v -3968 -896 0
v -4096 -1024 0
v -4096 -896 0
v -4224 -1024 0
v -4224 -896 0
v -4352 -1024 0
v -4352 -896 0
v -4480 -1024 0
v -4480 -896 0
v -4608 -1024 0
v -4608 -896 0
v -4736 -1024 0
v -4736 -896 0
v -4864 -1024 0
v -4864 -896 0
v -3072 -1152 0
v -3200 -1152 0
v -3328 -1152 0
v -3456 -1152 0
v -3584 -1152 0
v -3712 -1152 0
v -3840 -1152 0
v -3968 -1152 0
v -4096 -1152 0
v -4224 -1152 0
v -4352 -1152 0
v -4480 -1152 0
v -4608 -1152 0
v -4736 -1152 0
v -4864 -1152 0
v -1536 -2048 0
v -1664 -2048 0
v -1664 -1920 0
v -1536 -1920 0
v -1792 -2048 0
v -1792 -1920 0
v -1920 -2048 0
v -1920 -1920 0
v -2048 -2048 0
v -2048 -1920 0
v -2176 -2048 0
v -2176 -1920 0
v -2304 -2048 0
v -2304 -1920 0
v -2432 -2048 0
v -2432 -1920 0
v -2560 -2048 0
v -2560 -1920 0
v -2688 -2048 0
v -2688 -1920 0
v -2816 -2048 0
v -2816 -1920 0
v -2944 -2048 0
v -2944 -1920 0
v -3072 -2048 0
v -3072 -1920 0
v -3200 -2048 0
v -3200 -1920 0
v -3328 -2048 0
v -3328 -1920 0
v -3456 -2048 0
v -3456 -1920 0
v -3584 -2048 0
v -3584 -1920 0
v -3712 -2048 0
v -3712 -1920 0
v -3840 -2048 0
v -3840 -1920 0
v -3968 -2048 0
v -3968 -1920 0
v -4096 -2048 0
v -4096 -1920 0
v -4224 -2048 0
v -4224 -1920 0
v -512 -2048 0
v -640 -2048 0
v -640 -1920 0
v -512 -1920 0
v -768 -2048 0
v -768 -1920 0
v -896 -2048 0
v -896 -1920 0
v -1024 -2048 0
v -1024 -1920 0
v 0 -2304 0
v -128 -2304 0
v -128 -2176 0
v 0 -2176 0
v -256 -2304 0
v -256 -2176 0
v -384 -2304 0
v -384 -2176 0

# Texture cooridinates (Count = 4)
vt 0.0001220703 0.0001220703
vt 0.9998779 0.0001220703
vt 0.9998779 0.9998779
vt 0.0001220703 0.9998779

# Normal
vn 0 0 -1

# Groups (Count = 1)

g mesh_0001
f 1/1/1 2/2/1 3/3/1 4/4/1
f 2/1/1 5/2/1 6/3/1 3/4/1
f 5/1/1 7/2/1 8/3/1 6/4/1
f 7/1/1 9/2/1 10/3/1 8/4/1
f 9/1/1 11/2/1 12/3/1 10/4/1
f 11/1/1 13/2/1 14/3/1 12/4/1
f 15/1/1 16/2/1 17/3/1 18/4/1
f 16/1/1 19/2/1 20/3/1 17/4/1
f 19/1/1 21/2/1 22/3/1 20/4/1
f 21/1/1 23/2/1 24/3/1 22/4/1
f 23/1/1 25/2/1 26/3/1 24/4/1
f 25/1/1 27/2/1 28/3/1 26/4/1
f 27/1/1 29/2/1 30/3/1 28/4/1
f 29/1/1 31/2/1 32/3/1 30/4/1
f 31/1/1 33/2/1 34/3/1 32/4/1
f 33/1/1 35/2/1 36/3/1 34/4/1
f 35/1/1 37/2/1 38/3/1 36/4/1
f 37/1/1 39/2/1 40/3/1 38/4/1
f 39/1/1 41/2/1 42/3/1 40/4/1
f 41/1/1 43/2/1 44/3/1 42/4/1
f 45/1/1 46/2/1 16/3/1 15/4/1
f 46/1/1 47/2/1 19/3/1 16/4/1
f 47/1/1 48/2/1 21/3/1 19/4/1
f 48/1/1 49/2/1 23/3/1 21/4/1
f 49/1/1 50/2/1 25/3/1 23/4/1
f 50/1/1 51/2/1 27/3/1 25/4/1
f 51/1/1 52/2/1 29/3/1 27/4/1
f 52/1/1 53/2/1 31/3/1 29/4/1
f 53/1/1 54/2/1 33/3/1 31/4/1
f 54/1/1 55/2/1 35/3/1 33/4/1
f 55/1/1 56/2/1 37/3/1 35/4/1
f 56/1/1 57/2/1 39/3/1 37/4/1
f 57/1/1 58/2/1 41/3/1 39/4/1
f 58/1/1 59/2/1 43/3/1 41/4/1
f 60/1/1 61/2/1 62/3/1 63/4/1
f 61/1/1 64/2/1 65/3/1 62/4/1
f 64/1/1 66/2/1 67/3/1 65/4/1
f 66/1/1 68/2/1 69/3/1 67/4/1
f 68/1/1 70/2/1 71/3/1 69/4/1
f 70/1/1 72/2/1 73/3/1 71/4/1
f 72/1/1 74/2/1 75/3/1 73/4/1
f 74/1/1 76/2/1 77/3/1 75/4/1
f 76/1/1 78/2/1 79/3/1 77/4/1
f 78/1/1 80/2/1 81/3/1 79/4/1
f 80/1/1 82/2/1 83/3/1 81/4/1
f 82/1/1 84/2/1 85/3/1 83/4/1
f 84/1/1 86/2/1 87/3/1 85/4/1
f 86/1/1 88/2/1 89/3/1 87/4/1
f 88/1/1 90/2/1 91/3/1 89/4/1
f 90/1/1 92/2/1 93/3/1 91/4/1
f 92/1/1 94/2/1 95/3/1 93/4/1
f 94/1/1 96/2/1 97/3/1 95/4/1
f 96/1/1 98/2/1 99/3/1 97/4/1
f 98/1/1 100/2/1 101/3/1 99/4/1
f 100/1/1 102/2/1 103/3/1 101/4/1

g mesh_0002
f 104/1/1 105/2/1 106/3/1 107/4/1
f 105/1/1 108/2/1 109/3/1 106/4/1
f 108/1/1 110/2/1 111/3/1 109/4/1
f 110/1/1 112/2/1 113/3/1 111/4/1
f 114/1/1 115/2/1 116/3/1 117/4/1
f 115/1/1 118/2/1 119/3/1 116/4/1
f 118/1/1 120/2/1 121/3/1 119/4/1

